<svg width="32" height="32" viewBox="0 0 32 32" fill="none" xmlns="http://www.w3.org/2000/svg">
  <!-- Dark background circle -->
  <circle cx="16" cy="16" r="15.5" fill="#0a0a0a"/>
  <!-- Outer ring in Kong green -->
  <path d="M16 0C7.163 0 0 7.163 0 16C0 24.837 7.163 32 16 32C24.837 32 32 24.837 32 16C32 7.163 24.837 0 16 0ZM16 1.627C23.938 1.627 30.373 8.062 30.373 16C30.373 23.938 23.938 30.373 16 30.373C8.062 30.373 1.627 23.938 1.627 16C1.627 8.062 8.062 1.627 16 1.627Z" fill="#6fdc0e"/>
  <!-- Inner partial fill (crescent) in Kong green -->
  <path fill-rule="evenodd" clip-rule="evenodd" d="M16.181 4.61C22.471 4.61 27.571 9.71 27.571 16C27.571 22.29 22.471 27.39 16.181 27.39C9.89 27.39 4.791 22.29 4.791 16C4.791 14.463 5.096 12.997 5.648 11.659C6.454 12.756 7.754 13.469 9.22 13.469C11.667 13.469 13.65 11.486 13.65 9.04C13.65 7.573 12.937 6.273 11.839 5.467C13.177 4.915 14.644 4.61 16.181 4.61Z" fill="#6fdc0e"/>
</svg>
